<svg width="848" height="500" xmlns="http://www.w3.org/2000/svg"><g><g class="itemGroup" transform="translate(0,10)"><line x1="114.78125" y1="0" x2="848" y2="0" stroke="lightgrey" style="shape-rendering: crispEdges;"></line><text x="104.78125" y="0" dy="39.166666666666664" text-anchor="end" class="groupText" style="font-size: 11px; font-family: Arial, Helvetica;">'UnknownError'</text><rect x="812.8271448339483" y="0" width="1" height="78.33333333333333" style="shape-rendering: crispEdges; fill: rgb(191, 105, 191);"></rect><rect x="815.5327490774907" y="0" width="1" height="78.33333333333333" style="shape-rendering: crispEdges; fill: rgb(191, 105, 191);"></rect><rect x="818.2383533210332" y="0" width="1" height="78.33333333333333" style="shape-rendering: crispEdges; fill: rgb(191, 105, 191);"></rect><rect x="820.9439575645756" y="0" width="1" height="78.33333333333333" style="shape-rendering: crispEdges; fill: rgb(191, 105, 191);"></rect><rect x="823.649561808118" y="0" width="1" height="78.33333333333333" style="shape-rendering: crispEdges; fill: rgb(191, 105, 191);"></rect><rect x="826.3551660516605" y="0" width="1" height="78.33333333333333" style="shape-rendering: crispEdges; fill: rgb(191, 105, 191);"></rect><rect x="829.060770295203" y="0" width="1" height="78.33333333333333" style="shape-rendering: crispEdges; fill: rgb(191, 105, 191);"></rect><rect x="831.7663745387454" y="0" width="1" height="78.33333333333333" style="shape-rendering: crispEdges; fill: rgb(191, 105, 191);"></rect><rect x="834.4719787822879" y="0" width="1" height="78.33333333333333" style="shape-rendering: crispEdges; fill: rgb(191, 105, 191);"></rect><rect x="837.1775830258302" y="0" width="1" height="78.33333333333333" style="shape-rendering: crispEdges; fill: rgb(191, 105, 191);"></rect><rect x="839.8831872693728" y="0" width="1" height="78.33333333333333" style="shape-rendering: crispEdges; fill: rgb(191, 105, 191);"></rect><rect x="842.5887915129151" y="0" width="1" height="78.33333333333333" style="shape-rendering: crispEdges; fill: rgb(191, 105, 191);"></rect><rect x="845.2943957564576" y="0" width="1" height="78.33333333333333" style="shape-rendering: crispEdges; fill: rgb(191, 105, 191);"></rect><rect x="848" y="0" width="1" height="78.33333333333333" style="shape-rendering: crispEdges; fill: rgb(191, 105, 191);"></rect></g><g class="itemGroup" transform="translate(0,88.33333333333333)"><line x1="114.78125" y1="0" x2="848" y2="0" stroke="lightgrey" style="shape-rendering: crispEdges;"></line><text x="104.78125" y="0" dy="39.166666666666664" text-anchor="end" class="groupText" style="font-size: 11px; font-family: Arial, Helvetica;">'HealthStateDisabled'</text><rect x="447.5705719557196" y="0" width="1" height="78.33333333333333" style="shape-rendering: crispEdges; fill: rgb(105, 105, 191);"></rect></g><g class="itemGroup" transform="translate(0,166.66666666666666)"><line x1="114.78125" y1="0" x2="848" y2="0" stroke="lightgrey" style="shape-rendering: crispEdges;"></line><text x="104.78125" y="0" dy="39.166666666666664" text-anchor="end" class="groupText" style="font-size: 11px; font-family: Arial, Helvetica;">'WatchFailedError'</text><rect x="363.696840405904" y="0" width="1" height="78.33333333333333" style="shape-rendering: crispEdges; fill: rgb(105, 191, 191);"></rect><rect x="366.40244464944647" y="0" width="1" height="78.33333333333333" style="shape-rendering: crispEdges; fill: rgb(105, 191, 191);"></rect><rect x="393.45848708487085" y="0" width="1" height="78.33333333333333" style="shape-rendering: crispEdges; fill: rgb(105, 191, 191);"></rect><rect x="396.1640913284133" y="0" width="1" height="78.33333333333333" style="shape-rendering: crispEdges; fill: rgb(105, 191, 191);"></rect><rect x="774.9486854243543" y="0" width="1" height="78.33333333333333" style="shape-rendering: crispEdges; fill: rgb(105, 191, 191);"></rect><rect x="777.6542896678966" y="0" width="1" height="78.33333333333333" style="shape-rendering: crispEdges; fill: rgb(105, 191, 191);"></rect><rect x="804.7103321033211" y="0" width="1" height="78.33333333333333" style="shape-rendering: crispEdges; fill: rgb(105, 191, 191);"></rect><rect x="807.4159363468634" y="0" width="1" height="78.33333333333333" style="shape-rendering: crispEdges; fill: rgb(105, 191, 191);"></rect></g><g class="itemGroup" transform="translate(0,245)"><line x1="114.78125" y1="0" x2="848" y2="0" stroke="lightgrey" style="shape-rendering: crispEdges;"></line><text x="104.78125" y="0" dy="39.166666666666664" text-anchor="end" class="groupText" style="font-size: 11px; font-family: Arial, Helvetica;">'HealthStateFailed'</text><rect x="269.0006918819188" y="0" width="1" height="78.33333333333333" style="shape-rendering: crispEdges; fill: rgb(105, 191, 105);"></rect><rect x="480.0378228782288" y="0" width="1" height="78.33333333333333" style="shape-rendering: crispEdges; fill: rgb(105, 191, 105);"></rect><rect x="680.252536900369" y="0" width="1" height="78.33333333333333" style="shape-rendering: crispEdges; fill: rgb(105, 191, 105);"></rect></g><g class="itemGroup" transform="translate(0,323.3333333333333)"><line x1="114.78125" y1="0" x2="848" y2="0" stroke="lightgrey" style="shape-rendering: crispEdges;"></line><text x="104.78125" y="0" dy="39.166666666666664" text-anchor="end" class="groupText" style="font-size: 11px; font-family: Arial, Helvetica;">'ServerNotRunning'</text><rect x="260.8838791512915" y="0" width="1" height="78.33333333333333" style="shape-rendering: crispEdges; fill: rgb(191, 191, 105);"></rect><rect x="263.58948339483396" y="0" width="1" height="78.33333333333333" style="shape-rendering: crispEdges; fill: rgb(191, 191, 105);"></rect><rect x="266.2950876383764" y="0" width="1" height="78.33333333333333" style="shape-rendering: crispEdges; fill: rgb(191, 191, 105);"></rect><rect x="271.7062961254612" y="0" width="1" height="78.33333333333333" style="shape-rendering: crispEdges; fill: rgb(191, 191, 105);"></rect><rect x="672.1357241697417" y="0" width="1" height="78.33333333333333" style="shape-rendering: crispEdges; fill: rgb(191, 191, 105);"></rect><rect x="674.8413284132841" y="0" width="1" height="78.33333333333333" style="shape-rendering: crispEdges; fill: rgb(191, 191, 105);"></rect><rect x="677.5469326568266" y="0" width="1" height="78.33333333333333" style="shape-rendering: crispEdges; fill: rgb(191, 191, 105);"></rect><rect x="682.9581411439115" y="0" width="1" height="78.33333333333333" style="shape-rendering: crispEdges; fill: rgb(191, 191, 105);"></rect></g><g class="itemGroup" transform="translate(0,401.66666666666663)"><line x1="114.78125" y1="0" x2="848" y2="0" stroke="lightgrey" style="shape-rendering: crispEdges;"></line><text x="104.78125" y="0" dy="39.166666666666664" text-anchor="end" class="groupText" style="font-size: 11px; font-family: Arial, Helvetica;">''</text><rect x="114.78125" y="0" width="1" height="78.33333333333333" style="shape-rendering: crispEdges; fill: rgb(191, 105, 105);"></rect><rect x="117.48685424354244" y="0" width="1" height="78.33333333333333" style="shape-rendering: crispEdges; fill: rgb(191, 105, 105);"></rect><rect x="120.19245848708486" y="0" width="1" height="78.33333333333333" style="shape-rendering: crispEdges; fill: rgb(191, 105, 105);"></rect><rect x="122.89806273062732" y="0" width="1" height="78.33333333333333" style="shape-rendering: crispEdges; fill: rgb(191, 105, 105);"></rect><rect x="125.60366697416974" y="0" width="1" height="78.33333333333333" style="shape-rendering: crispEdges; fill: rgb(191, 105, 105);"></rect><rect x="128.3092712177122" y="0" width="1" height="78.33333333333333" style="shape-rendering: crispEdges; fill: rgb(191, 105, 105);"></rect><rect x="131.0148754612546" y="0" width="1" height="78.33333333333333" style="shape-rendering: crispEdges; fill: rgb(191, 105, 105);"></rect><rect x="133.72047970479704" y="0" width="1" height="78.33333333333333" style="shape-rendering: crispEdges; fill: rgb(191, 105, 105);"></rect><rect x="136.42608394833948" y="0" width="1" height="78.33333333333333" style="shape-rendering: crispEdges; fill: rgb(191, 105, 105);"></rect><rect x="139.13168819188192" y="0" width="1" height="78.33333333333333" style="shape-rendering: crispEdges; fill: rgb(191, 105, 105);"></rect><rect x="141.83729243542436" y="0" width="1" height="78.33333333333333" style="shape-rendering: crispEdges; fill: rgb(191, 105, 105);"></rect><rect x="144.5428966789668" y="0" width="1" height="78.33333333333333" style="shape-rendering: crispEdges; fill: rgb(191, 105, 105);"></rect><rect x="147.24850092250924" y="0" width="1" height="78.33333333333333" style="shape-rendering: crispEdges; fill: rgb(191, 105, 105);"></rect><rect x="149.95410516605165" y="0" width="1" height="78.33333333333333" style="shape-rendering: crispEdges; fill: rgb(191, 105, 105);"></rect><rect x="152.65970940959411" y="0" width="1" height="78.33333333333333" style="shape-rendering: crispEdges; fill: rgb(191, 105, 105);"></rect><rect x="155.36531365313652" y="0" width="1" height="78.33333333333333" style="shape-rendering: crispEdges; fill: rgb(191, 105, 105);"></rect><rect x="158.07091789667896" y="0" width="1" height="78.33333333333333" style="shape-rendering: crispEdges; fill: rgb(191, 105, 105);"></rect><rect x="160.7765221402214" y="0" width="1" height="78.33333333333333" style="shape-rendering: crispEdges; fill: rgb(191, 105, 105);"></rect><rect x="163.48212638376384" y="0" width="1" height="78.33333333333333" style="shape-rendering: crispEdges; fill: rgb(191, 105, 105);"></rect><rect x="166.18773062730628" y="0" width="1" height="78.33333333333333" style="shape-rendering: crispEdges; fill: rgb(191, 105, 105);"></rect><rect x="168.89333487084872" y="0" width="1" height="78.33333333333333" style="shape-rendering: crispEdges; fill: rgb(191, 105, 105);"></rect><rect x="171.59893911439116" y="0" width="1" height="78.33333333333333" style="shape-rendering: crispEdges; fill: rgb(191, 105, 105);"></rect><rect x="174.3045433579336" y="0" width="1" height="78.33333333333333" style="shape-rendering: crispEdges; fill: rgb(191, 105, 105);"></rect><rect x="177.01014760147604" y="0" width="1" height="78.33333333333333" style="shape-rendering: crispEdges; fill: rgb(191, 105, 105);"></rect><rect x="179.71575184501845" y="0" width="1" height="78.33333333333333" style="shape-rendering: crispEdges; fill: rgb(191, 105, 105);"></rect><rect x="182.4213560885609" y="0" width="1" height="78.33333333333333" style="shape-rendering: crispEdges; fill: rgb(191, 105, 105);"></rect><rect x="185.12696033210332" y="0" width="1" height="78.33333333333333" style="shape-rendering: crispEdges; fill: rgb(191, 105, 105);"></rect><rect x="187.83256457564573" y="0" width="1" height="78.33333333333333" style="shape-rendering: crispEdges; fill: rgb(191, 105, 105);"></rect><rect x="190.5381688191882" y="0" width="1" height="78.33333333333333" style="shape-rendering: crispEdges; fill: rgb(191, 105, 105);"></rect><rect x="193.2437730627306" y="0" width="1" height="78.33333333333333" style="shape-rendering: crispEdges; fill: rgb(191, 105, 105);"></rect><rect x="195.94937730627305" y="0" width="1" height="78.33333333333333" style="shape-rendering: crispEdges; fill: rgb(191, 105, 105);"></rect><rect x="198.6549815498155" y="0" width="1" height="78.33333333333333" style="shape-rendering: crispEdges; fill: rgb(191, 105, 105);"></rect><rect x="201.36058579335793" y="0" width="1" height="78.33333333333333" style="shape-rendering: crispEdges; fill: rgb(191, 105, 105);"></rect><rect x="204.06619003690037" y="0" width="1" height="78.33333333333333" style="shape-rendering: crispEdges; fill: rgb(191, 105, 105);"></rect><rect x="206.7717942804428" y="0" width="1" height="78.33333333333333" style="shape-rendering: crispEdges; fill: rgb(191, 105, 105);"></rect><rect x="209.47739852398524" y="0" width="1" height="78.33333333333333" style="shape-rendering: crispEdges; fill: rgb(191, 105, 105);"></rect><rect x="212.18300276752768" y="0" width="1" height="78.33333333333333" style="shape-rendering: crispEdges; fill: rgb(191, 105, 105);"></rect><rect x="214.88860701107012" y="0" width="1" height="78.33333333333333" style="shape-rendering: crispEdges; fill: rgb(191, 105, 105);"></rect><rect x="217.59421125461253" y="0" width="1" height="78.33333333333333" style="shape-rendering: crispEdges; fill: rgb(191, 105, 105);"></rect><rect x="220.29981549815497" y="0" width="1" height="78.33333333333333" style="shape-rendering: crispEdges; fill: rgb(191, 105, 105);"></rect><rect x="223.0054197416974" y="0" width="1" height="78.33333333333333" style="shape-rendering: crispEdges; fill: rgb(191, 105, 105);"></rect><rect x="225.71102398523985" y="0" width="1" height="78.33333333333333" style="shape-rendering: crispEdges; fill: rgb(191, 105, 105);"></rect><rect x="228.4166282287823" y="0" width="1" height="78.33333333333333" style="shape-rendering: crispEdges; fill: rgb(191, 105, 105);"></rect><rect x="231.1222324723247" y="0" width="1" height="78.33333333333333" style="shape-rendering: crispEdges; fill: rgb(191, 105, 105);"></rect><rect x="233.82783671586714" y="0" width="1" height="78.33333333333333" style="shape-rendering: crispEdges; fill: rgb(191, 105, 105);"></rect><rect x="236.5334409594096" y="0" width="1" height="78.33333333333333" style="shape-rendering: crispEdges; fill: rgb(191, 105, 105);"></rect><rect x="239.239045202952" y="0" width="1" height="78.33333333333333" style="shape-rendering: crispEdges; fill: rgb(191, 105, 105);"></rect><rect x="241.94464944649445" y="0" width="1" height="78.33333333333333" style="shape-rendering: crispEdges; fill: rgb(191, 105, 105);"></rect><rect x="244.6502536900369" y="0" width="1" height="78.33333333333333" style="shape-rendering: crispEdges; fill: rgb(191, 105, 105);"></rect><rect x="247.35585793357933" y="0" width="1" height="78.33333333333333" style="shape-rendering: crispEdges; fill: rgb(191, 105, 105);"></rect><rect x="250.06146217712177" y="0" width="1" height="78.33333333333333" style="shape-rendering: crispEdges; fill: rgb(191, 105, 105);"></rect><rect x="252.7670664206642" y="0" width="1" height="78.33333333333333" style="shape-rendering: crispEdges; fill: rgb(191, 105, 105);"></rect><rect x="255.47267066420665" y="0" width="1" height="78.33333333333333" style="shape-rendering: crispEdges; fill: rgb(191, 105, 105);"></rect><rect x="258.178274907749" y="0" width="1" height="78.33333333333333" style="shape-rendering: crispEdges; fill: rgb(191, 105, 105);"></rect><rect x="274.41190036900366" y="0" width="1" height="78.33333333333333" style="shape-rendering: crispEdges; fill: rgb(191, 105, 105);"></rect><rect x="277.1175046125461" y="0" width="1" height="78.33333333333333" style="shape-rendering: crispEdges; fill: rgb(191, 105, 105);"></rect><rect x="279.82310885608854" y="0" width="1" height="78.33333333333333" style="shape-rendering: crispEdges; fill: rgb(191, 105, 105);"></rect><rect x="282.528713099631" y="0" width="1" height="78.33333333333333" style="shape-rendering: crispEdges; fill: rgb(191, 105, 105);"></rect><rect x="285.2343173431734" y="0" width="1" height="78.33333333333333" style="shape-rendering: crispEdges; fill: rgb(191, 105, 105);"></rect><rect x="287.93992158671585" y="0" width="1" height="78.33333333333333" style="shape-rendering: crispEdges; fill: rgb(191, 105, 105);"></rect><rect x="290.6455258302583" y="0" width="1" height="78.33333333333333" style="shape-rendering: crispEdges; fill: rgb(191, 105, 105);"></rect><rect x="293.35113007380073" y="0" width="1" height="78.33333333333333" style="shape-rendering: crispEdges; fill: rgb(191, 105, 105);"></rect><rect x="296.05673431734317" y="0" width="1" height="78.33333333333333" style="shape-rendering: crispEdges; fill: rgb(191, 105, 105);"></rect><rect x="298.7623385608856" y="0" width="1" height="78.33333333333333" style="shape-rendering: crispEdges; fill: rgb(191, 105, 105);"></rect><rect x="301.46794280442805" y="0" width="1" height="78.33333333333333" style="shape-rendering: crispEdges; fill: rgb(191, 105, 105);"></rect><rect x="304.1735470479705" y="0" width="1" height="78.33333333333333" style="shape-rendering: crispEdges; fill: rgb(191, 105, 105);"></rect><rect x="306.8791512915129" y="0" width="1" height="78.33333333333333" style="shape-rendering: crispEdges; fill: rgb(191, 105, 105);"></rect><rect x="309.58475553505536" y="0" width="1" height="78.33333333333333" style="shape-rendering: crispEdges; fill: rgb(191, 105, 105);"></rect><rect x="312.2903597785978" y="0" width="1" height="78.33333333333333" style="shape-rendering: crispEdges; fill: rgb(191, 105, 105);"></rect><rect x="314.99596402214024" y="0" width="1" height="78.33333333333333" style="shape-rendering: crispEdges; fill: rgb(191, 105, 105);"></rect><rect x="317.7015682656827" y="0" width="1" height="78.33333333333333" style="shape-rendering: crispEdges; fill: rgb(191, 105, 105);"></rect><rect x="320.40717250922506" y="0" width="1" height="78.33333333333333" style="shape-rendering: crispEdges; fill: rgb(191, 105, 105);"></rect><rect x="323.11277675276756" y="0" width="1" height="78.33333333333333" style="shape-rendering: crispEdges; fill: rgb(191, 105, 105);"></rect><rect x="325.81838099631" y="0" width="1" height="78.33333333333333" style="shape-rendering: crispEdges; fill: rgb(191, 105, 105);"></rect><rect x="328.5239852398524" y="0" width="1" height="78.33333333333333" style="shape-rendering: crispEdges; fill: rgb(191, 105, 105);"></rect><rect x="331.2295894833948" y="0" width="1" height="78.33333333333333" style="shape-rendering: crispEdges; fill: rgb(191, 105, 105);"></rect><rect x="333.93519372693726" y="0" width="1" height="78.33333333333333" style="shape-rendering: crispEdges; fill: rgb(191, 105, 105);"></rect><rect x="336.6407979704797" y="0" width="1" height="78.33333333333333" style="shape-rendering: crispEdges; fill: rgb(191, 105, 105);"></rect><rect x="339.34640221402213" y="0" width="1" height="78.33333333333333" style="shape-rendering: crispEdges; fill: rgb(191, 105, 105);"></rect><rect x="342.0520064575646" y="0" width="1" height="78.33333333333333" style="shape-rendering: crispEdges; fill: rgb(191, 105, 105);"></rect><rect x="344.757610701107" y="0" width="1" height="78.33333333333333" style="shape-rendering: crispEdges; fill: rgb(191, 105, 105);"></rect><rect x="347.4632149446494" y="0" width="1" height="78.33333333333333" style="shape-rendering: crispEdges; fill: rgb(191, 105, 105);"></rect><rect x="350.16881918819183" y="0" width="1" height="78.33333333333333" style="shape-rendering: crispEdges; fill: rgb(191, 105, 105);"></rect><rect x="352.8744234317343" y="0" width="1" height="78.33333333333333" style="shape-rendering: crispEdges; fill: rgb(191, 105, 105);"></rect><rect x="355.58002767527677" y="0" width="1" height="78.33333333333333" style="shape-rendering: crispEdges; fill: rgb(191, 105, 105);"></rect><rect x="358.2856319188192" y="0" width="1" height="78.33333333333333" style="shape-rendering: crispEdges; fill: rgb(191, 105, 105);"></rect><rect x="360.99123616236164" y="0" width="1" height="78.33333333333333" style="shape-rendering: crispEdges; fill: rgb(191, 105, 105);"></rect><rect x="369.1080488929889" y="0" width="1" height="78.33333333333333" style="shape-rendering: crispEdges; fill: rgb(191, 105, 105);"></rect><rect x="371.81365313653134" y="0" width="1" height="78.33333333333333" style="shape-rendering: crispEdges; fill: rgb(191, 105, 105);"></rect><rect x="374.5192573800738" y="0" width="1" height="78.33333333333333" style="shape-rendering: crispEdges; fill: rgb(191, 105, 105);"></rect><rect x="377.2248616236162" y="0" width="1" height="78.33333333333333" style="shape-rendering: crispEdges; fill: rgb(191, 105, 105);"></rect><rect x="379.93046586715866" y="0" width="1" height="78.33333333333333" style="shape-rendering: crispEdges; fill: rgb(191, 105, 105);"></rect><rect x="382.6360701107011" y="0" width="1" height="78.33333333333333" style="shape-rendering: crispEdges; fill: rgb(191, 105, 105);"></rect><rect x="385.34167435424354" y="0" width="1" height="78.33333333333333" style="shape-rendering: crispEdges; fill: rgb(191, 105, 105);"></rect><rect x="388.047278597786" y="0" width="1" height="78.33333333333333" style="shape-rendering: crispEdges; fill: rgb(191, 105, 105);"></rect><rect x="390.7528828413284" y="0" width="1" height="78.33333333333333" style="shape-rendering: crispEdges; fill: rgb(191, 105, 105);"></rect><rect x="398.86969557195573" y="0" width="1" height="78.33333333333333" style="shape-rendering: crispEdges; fill: rgb(191, 105, 105);"></rect><rect x="401.5752998154981" y="0" width="1" height="78.33333333333333" style="shape-rendering: crispEdges; fill: rgb(191, 105, 105);"></rect><rect x="404.28090405904055" y="0" width="1" height="78.33333333333333" style="shape-rendering: crispEdges; fill: rgb(191, 105, 105);"></rect><rect x="406.98650830258305" y="0" width="1" height="78.33333333333333" style="shape-rendering: crispEdges; fill: rgb(191, 105, 105);"></rect><rect x="409.6921125461255" y="0" width="1" height="78.33333333333333" style="shape-rendering: crispEdges; fill: rgb(191, 105, 105);"></rect><rect x="412.3977167896679" y="0" width="1" height="78.33333333333333" style="shape-rendering: crispEdges; fill: rgb(191, 105, 105);"></rect><rect x="415.10332103321036" y="0" width="1" height="78.33333333333333" style="shape-rendering: crispEdges; fill: rgb(191, 105, 105);"></rect><rect x="417.8089252767528" y="0" width="1" height="78.33333333333333" style="shape-rendering: crispEdges; fill: rgb(191, 105, 105);"></rect><rect x="420.51452952029524" y="0" width="1" height="78.33333333333333" style="shape-rendering: crispEdges; fill: rgb(191, 105, 105);"></rect><rect x="423.2201337638376" y="0" width="1" height="78.33333333333333" style="shape-rendering: crispEdges; fill: rgb(191, 105, 105);"></rect><rect x="425.92573800738006" y="0" width="1" height="78.33333333333333" style="shape-rendering: crispEdges; fill: rgb(191, 105, 105);"></rect><rect x="428.63134225092244" y="0" width="1" height="78.33333333333333" style="shape-rendering: crispEdges; fill: rgb(191, 105, 105);"></rect><rect x="431.33694649446494" y="0" width="1" height="78.33333333333333" style="shape-rendering: crispEdges; fill: rgb(191, 105, 105);"></rect><rect x="434.0425507380074" y="0" width="1" height="78.33333333333333" style="shape-rendering: crispEdges; fill: rgb(191, 105, 105);"></rect><rect x="436.7481549815498" y="0" width="1" height="78.33333333333333" style="shape-rendering: crispEdges; fill: rgb(191, 105, 105);"></rect><rect x="439.45375922509226" y="0" width="1" height="78.33333333333333" style="shape-rendering: crispEdges; fill: rgb(191, 105, 105);"></rect><rect x="442.1593634686347" y="0" width="1" height="78.33333333333333" style="shape-rendering: crispEdges; fill: rgb(191, 105, 105);"></rect><rect x="444.86496771217713" y="0" width="1" height="78.33333333333333" style="shape-rendering: crispEdges; fill: rgb(191, 105, 105);"></rect><rect x="450.27617619926195" y="0" width="1" height="78.33333333333333" style="shape-rendering: crispEdges; fill: rgb(191, 105, 105);"></rect><rect x="452.98178044280445" y="0" width="1" height="78.33333333333333" style="shape-rendering: crispEdges; fill: rgb(191, 105, 105);"></rect><rect x="455.68738468634683" y="0" width="1" height="78.33333333333333" style="shape-rendering: crispEdges; fill: rgb(191, 105, 105);"></rect><rect x="458.39298892988927" y="0" width="1" height="78.33333333333333" style="shape-rendering: crispEdges; fill: rgb(191, 105, 105);"></rect><rect x="461.0985931734317" y="0" width="1" height="78.33333333333333" style="shape-rendering: crispEdges; fill: rgb(191, 105, 105);"></rect><rect x="463.80419741697415" y="0" width="1" height="78.33333333333333" style="shape-rendering: crispEdges; fill: rgb(191, 105, 105);"></rect><rect x="466.5098016605166" y="0" width="1" height="78.33333333333333" style="shape-rendering: crispEdges; fill: rgb(191, 105, 105);"></rect><rect x="469.215405904059" y="0" width="1" height="78.33333333333333" style="shape-rendering: crispEdges; fill: rgb(191, 105, 105);"></rect><rect x="471.92101014760146" y="0" width="1" height="78.33333333333333" style="shape-rendering: crispEdges; fill: rgb(191, 105, 105);"></rect><rect x="474.62661439114396" y="0" width="1" height="78.33333333333333" style="shape-rendering: crispEdges; fill: rgb(191, 105, 105);"></rect><rect x="477.3322186346864" y="0" width="1" height="78.33333333333333" style="shape-rendering: crispEdges; fill: rgb(191, 105, 105);"></rect><rect x="482.7434271217712" y="0" width="1" height="78.33333333333333" style="shape-rendering: crispEdges; fill: rgb(191, 105, 105);"></rect><rect x="485.44903136531366" y="0" width="1" height="78.33333333333333" style="shape-rendering: crispEdges; fill: rgb(191, 105, 105);"></rect><rect x="488.15463560885604" y="0" width="1" height="78.33333333333333" style="shape-rendering: crispEdges; fill: rgb(191, 105, 105);"></rect><rect x="490.86023985239854" y="0" width="1" height="78.33333333333333" style="shape-rendering: crispEdges; fill: rgb(191, 105, 105);"></rect><rect x="493.565844095941" y="0" width="1" height="78.33333333333333" style="shape-rendering: crispEdges; fill: rgb(191, 105, 105);"></rect><rect x="496.27144833948336" y="0" width="1" height="78.33333333333333" style="shape-rendering: crispEdges; fill: rgb(191, 105, 105);"></rect><rect x="498.97705258302585" y="0" width="1" height="78.33333333333333" style="shape-rendering: crispEdges; fill: rgb(191, 105, 105);"></rect><rect x="501.68265682656823" y="0" width="1" height="78.33333333333333" style="shape-rendering: crispEdges; fill: rgb(191, 105, 105);"></rect><rect x="504.38826107011073" y="0" width="1" height="78.33333333333333" style="shape-rendering: crispEdges; fill: rgb(191, 105, 105);"></rect><rect x="507.0938653136531" y="0" width="1" height="78.33333333333333" style="shape-rendering: crispEdges; fill: rgb(191, 105, 105);"></rect><rect x="509.79946955719555" y="0" width="1" height="78.33333333333333" style="shape-rendering: crispEdges; fill: rgb(191, 105, 105);"></rect><rect x="512.505073800738" y="0" width="1" height="78.33333333333333" style="shape-rendering: crispEdges; fill: rgb(191, 105, 105);"></rect><rect x="515.2106780442805" y="0" width="1" height="78.33333333333333" style="shape-rendering: crispEdges; fill: rgb(191, 105, 105);"></rect><rect x="517.9162822878228" y="0" width="1" height="78.33333333333333" style="shape-rendering: crispEdges; fill: rgb(191, 105, 105);"></rect><rect x="520.6218865313654" y="0" width="1" height="78.33333333333333" style="shape-rendering: crispEdges; fill: rgb(191, 105, 105);"></rect><rect x="523.3274907749078" y="0" width="1" height="78.33333333333333" style="shape-rendering: crispEdges; fill: rgb(191, 105, 105);"></rect><rect x="526.0330950184501" y="0" width="1" height="78.33333333333333" style="shape-rendering: crispEdges; fill: rgb(191, 105, 105);"></rect><rect x="528.7386992619927" y="0" width="1" height="78.33333333333333" style="shape-rendering: crispEdges; fill: rgb(191, 105, 105);"></rect><rect x="531.444303505535" y="0" width="1" height="78.33333333333333" style="shape-rendering: crispEdges; fill: rgb(191, 105, 105);"></rect><rect x="534.1499077490776" y="0" width="1" height="78.33333333333333" style="shape-rendering: crispEdges; fill: rgb(191, 105, 105);"></rect><rect x="536.8555119926199" y="0" width="1" height="78.33333333333333" style="shape-rendering: crispEdges; fill: rgb(191, 105, 105);"></rect><rect x="539.5611162361623" y="0" width="1" height="78.33333333333333" style="shape-rendering: crispEdges; fill: rgb(191, 105, 105);"></rect><rect x="542.2667204797048" y="0" width="1" height="78.33333333333333" style="shape-rendering: crispEdges; fill: rgb(191, 105, 105);"></rect><rect x="544.9723247232473" y="0" width="1" height="78.33333333333333" style="shape-rendering: crispEdges; fill: rgb(191, 105, 105);"></rect><rect x="547.6779289667896" y="0" width="1" height="78.33333333333333" style="shape-rendering: crispEdges; fill: rgb(191, 105, 105);"></rect><rect x="550.3835332103321" y="0" width="1" height="78.33333333333333" style="shape-rendering: crispEdges; fill: rgb(191, 105, 105);"></rect><rect x="553.0891374538745" y="0" width="1" height="78.33333333333333" style="shape-rendering: crispEdges; fill: rgb(191, 105, 105);"></rect><rect x="555.794741697417" y="0" width="1" height="78.33333333333333" style="shape-rendering: crispEdges; fill: rgb(191, 105, 105);"></rect><rect x="558.5003459409594" y="0" width="1" height="78.33333333333333" style="shape-rendering: crispEdges; fill: rgb(191, 105, 105);"></rect><rect x="561.2059501845018" y="0" width="1" height="78.33333333333333" style="shape-rendering: crispEdges; fill: rgb(191, 105, 105);"></rect><rect x="563.9115544280443" y="0" width="1" height="78.33333333333333" style="shape-rendering: crispEdges; fill: rgb(191, 105, 105);"></rect><rect x="566.6171586715867" y="0" width="1" height="78.33333333333333" style="shape-rendering: crispEdges; fill: rgb(191, 105, 105);"></rect><rect x="569.3227629151291" y="0" width="1" height="78.33333333333333" style="shape-rendering: crispEdges; fill: rgb(191, 105, 105);"></rect><rect x="572.0283671586716" y="0" width="1" height="78.33333333333333" style="shape-rendering: crispEdges; fill: rgb(191, 105, 105);"></rect><rect x="574.733971402214" y="0" width="1" height="78.33333333333333" style="shape-rendering: crispEdges; fill: rgb(191, 105, 105);"></rect><rect x="577.4395756457565" y="0" width="1" height="78.33333333333333" style="shape-rendering: crispEdges; fill: rgb(191, 105, 105);"></rect><rect x="580.1451798892988" y="0" width="1" height="78.33333333333333" style="shape-rendering: crispEdges; fill: rgb(191, 105, 105);"></rect><rect x="582.8507841328415" y="0" width="1" height="78.33333333333333" style="shape-rendering: crispEdges; fill: rgb(191, 105, 105);"></rect><rect x="585.5563883763838" y="0" width="1" height="78.33333333333333" style="shape-rendering: crispEdges; fill: rgb(191, 105, 105);"></rect><rect x="588.2619926199262" y="0" width="1" height="78.33333333333333" style="shape-rendering: crispEdges; fill: rgb(191, 105, 105);"></rect><rect x="590.9675968634687" y="0" width="1" height="78.33333333333333" style="shape-rendering: crispEdges; fill: rgb(191, 105, 105);"></rect><rect x="593.6732011070111" y="0" width="1" height="78.33333333333333" style="shape-rendering: crispEdges; fill: rgb(191, 105, 105);"></rect><rect x="596.3788053505535" y="0" width="1" height="78.33333333333333" style="shape-rendering: crispEdges; fill: rgb(191, 105, 105);"></rect><rect x="599.084409594096" y="0" width="1" height="78.33333333333333" style="shape-rendering: crispEdges; fill: rgb(191, 105, 105);"></rect><rect x="601.7900138376384" y="0" width="1" height="78.33333333333333" style="shape-rendering: crispEdges; fill: rgb(191, 105, 105);"></rect><rect x="604.4956180811807" y="0" width="1" height="78.33333333333333" style="shape-rendering: crispEdges; fill: rgb(191, 105, 105);"></rect><rect x="607.2012223247233" y="0" width="1" height="78.33333333333333" style="shape-rendering: crispEdges; fill: rgb(191, 105, 105);"></rect><rect x="609.9068265682656" y="0" width="1" height="78.33333333333333" style="shape-rendering: crispEdges; fill: rgb(191, 105, 105);"></rect><rect x="612.612430811808" y="0" width="1" height="78.33333333333333" style="shape-rendering: crispEdges; fill: rgb(191, 105, 105);"></rect><rect x="615.3180350553505" y="0" width="1" height="78.33333333333333" style="shape-rendering: crispEdges; fill: rgb(191, 105, 105);"></rect><rect x="618.0236392988929" y="0" width="1" height="78.33333333333333" style="shape-rendering: crispEdges; fill: rgb(191, 105, 105);"></rect><rect x="620.7292435424354" y="0" width="1" height="78.33333333333333" style="shape-rendering: crispEdges; fill: rgb(191, 105, 105);"></rect><rect x="623.4348477859778" y="0" width="1" height="78.33333333333333" style="shape-rendering: crispEdges; fill: rgb(191, 105, 105);"></rect><rect x="626.1404520295204" y="0" width="1" height="78.33333333333333" style="shape-rendering: crispEdges; fill: rgb(191, 105, 105);"></rect><rect x="628.8460562730628" y="0" width="1" height="78.33333333333333" style="shape-rendering: crispEdges; fill: rgb(191, 105, 105);"></rect><rect x="631.5516605166052" y="0" width="1" height="78.33333333333333" style="shape-rendering: crispEdges; fill: rgb(191, 105, 105);"></rect><rect x="634.2572647601476" y="0" width="1" height="78.33333333333333" style="shape-rendering: crispEdges; fill: rgb(191, 105, 105);"></rect><rect x="636.9628690036901" y="0" width="1" height="78.33333333333333" style="shape-rendering: crispEdges; fill: rgb(191, 105, 105);"></rect><rect x="639.6684732472324" y="0" width="1" height="78.33333333333333" style="shape-rendering: crispEdges; fill: rgb(191, 105, 105);"></rect><rect x="642.3740774907749" y="0" width="1" height="78.33333333333333" style="shape-rendering: crispEdges; fill: rgb(191, 105, 105);"></rect><rect x="645.0796817343173" y="0" width="1" height="78.33333333333333" style="shape-rendering: crispEdges; fill: rgb(191, 105, 105);"></rect><rect x="647.7852859778598" y="0" width="1" height="78.33333333333333" style="shape-rendering: crispEdges; fill: rgb(191, 105, 105);"></rect><rect x="650.4908902214022" y="0" width="1" height="78.33333333333333" style="shape-rendering: crispEdges; fill: rgb(191, 105, 105);"></rect><rect x="653.1964944649446" y="0" width="1" height="78.33333333333333" style="shape-rendering: crispEdges; fill: rgb(191, 105, 105);"></rect><rect x="655.9020987084871" y="0" width="1" height="78.33333333333333" style="shape-rendering: crispEdges; fill: rgb(191, 105, 105);"></rect><rect x="658.6077029520294" y="0" width="1" height="78.33333333333333" style="shape-rendering: crispEdges; fill: rgb(191, 105, 105);"></rect><rect x="661.313307195572" y="0" width="1" height="78.33333333333333" style="shape-rendering: crispEdges; fill: rgb(191, 105, 105);"></rect><rect x="664.0189114391144" y="0" width="1" height="78.33333333333333" style="shape-rendering: crispEdges; fill: rgb(191, 105, 105);"></rect><rect x="666.7245156826569" y="0" width="1" height="78.33333333333333" style="shape-rendering: crispEdges; fill: rgb(191, 105, 105);"></rect><rect x="669.4301199261993" y="0" width="1" height="78.33333333333333" style="shape-rendering: crispEdges; fill: rgb(191, 105, 105);"></rect><rect x="685.6637453874539" y="0" width="1" height="78.33333333333333" style="shape-rendering: crispEdges; fill: rgb(191, 105, 105);"></rect><rect x="688.3693496309962" y="0" width="1" height="78.33333333333333" style="shape-rendering: crispEdges; fill: rgb(191, 105, 105);"></rect><rect x="691.0749538745388" y="0" width="1" height="78.33333333333333" style="shape-rendering: crispEdges; fill: rgb(191, 105, 105);"></rect><rect x="693.7805581180811" y="0" width="1" height="78.33333333333333" style="shape-rendering: crispEdges; fill: rgb(191, 105, 105);"></rect><rect x="696.4861623616237" y="0" width="1" height="78.33333333333333" style="shape-rendering: crispEdges; fill: rgb(191, 105, 105);"></rect><rect x="699.191766605166" y="0" width="1" height="78.33333333333333" style="shape-rendering: crispEdges; fill: rgb(191, 105, 105);"></rect><rect x="701.8973708487084" y="0" width="1" height="78.33333333333333" style="shape-rendering: crispEdges; fill: rgb(191, 105, 105);"></rect><rect x="704.602975092251" y="0" width="1" height="78.33333333333333" style="shape-rendering: crispEdges; fill: rgb(191, 105, 105);"></rect><rect x="707.3085793357934" y="0" width="1" height="78.33333333333333" style="shape-rendering: crispEdges; fill: rgb(191, 105, 105);"></rect><rect x="710.0141835793358" y="0" width="1" height="78.33333333333333" style="shape-rendering: crispEdges; fill: rgb(191, 105, 105);"></rect><rect x="712.7197878228782" y="0" width="1" height="78.33333333333333" style="shape-rendering: crispEdges; fill: rgb(191, 105, 105);"></rect><rect x="715.4253920664207" y="0" width="1" height="78.33333333333333" style="shape-rendering: crispEdges; fill: rgb(191, 105, 105);"></rect><rect x="718.130996309963" y="0" width="1" height="78.33333333333333" style="shape-rendering: crispEdges; fill: rgb(191, 105, 105);"></rect><rect x="720.8366005535056" y="0" width="1" height="78.33333333333333" style="shape-rendering: crispEdges; fill: rgb(191, 105, 105);"></rect><rect x="723.5422047970479" y="0" width="1" height="78.33333333333333" style="shape-rendering: crispEdges; fill: rgb(191, 105, 105);"></rect><rect x="726.2478090405905" y="0" width="1" height="78.33333333333333" style="shape-rendering: crispEdges; fill: rgb(191, 105, 105);"></rect><rect x="728.9534132841328" y="0" width="1" height="78.33333333333333" style="shape-rendering: crispEdges; fill: rgb(191, 105, 105);"></rect><rect x="731.6590175276752" y="0" width="1" height="78.33333333333333" style="shape-rendering: crispEdges; fill: rgb(191, 105, 105);"></rect><rect x="734.3646217712177" y="0" width="1" height="78.33333333333333" style="shape-rendering: crispEdges; fill: rgb(191, 105, 105);"></rect><rect x="737.0702260147601" y="0" width="1" height="78.33333333333333" style="shape-rendering: crispEdges; fill: rgb(191, 105, 105);"></rect><rect x="739.7758302583026" y="0" width="1" height="78.33333333333333" style="shape-rendering: crispEdges; fill: rgb(191, 105, 105);"></rect><rect x="742.4814345018449" y="0" width="1" height="78.33333333333333" style="shape-rendering: crispEdges; fill: rgb(191, 105, 105);"></rect><rect x="745.1870387453874" y="0" width="1" height="78.33333333333333" style="shape-rendering: crispEdges; fill: rgb(191, 105, 105);"></rect><rect x="747.8926429889299" y="0" width="1" height="78.33333333333333" style="shape-rendering: crispEdges; fill: rgb(191, 105, 105);"></rect><rect x="750.5982472324724" y="0" width="1" height="78.33333333333333" style="shape-rendering: crispEdges; fill: rgb(191, 105, 105);"></rect><rect x="753.3038514760148" y="0" width="1" height="78.33333333333333" style="shape-rendering: crispEdges; fill: rgb(191, 105, 105);"></rect><rect x="756.0094557195573" y="0" width="1" height="78.33333333333333" style="shape-rendering: crispEdges; fill: rgb(191, 105, 105);"></rect><rect x="758.7150599630996" y="0" width="1" height="78.33333333333333" style="shape-rendering: crispEdges; fill: rgb(191, 105, 105);"></rect><rect x="761.4206642066421" y="0" width="1" height="78.33333333333333" style="shape-rendering: crispEdges; fill: rgb(191, 105, 105);"></rect><rect x="764.1262684501845" y="0" width="1" height="78.33333333333333" style="shape-rendering: crispEdges; fill: rgb(191, 105, 105);"></rect><rect x="766.8318726937268" y="0" width="1" height="78.33333333333333" style="shape-rendering: crispEdges; fill: rgb(191, 105, 105);"></rect><rect x="769.5374769372694" y="0" width="1" height="78.33333333333333" style="shape-rendering: crispEdges; fill: rgb(191, 105, 105);"></rect><rect x="772.2430811808117" y="0" width="1" height="78.33333333333333" style="shape-rendering: crispEdges; fill: rgb(191, 105, 105);"></rect><rect x="780.3598939114391" y="0" width="1" height="78.33333333333333" style="shape-rendering: crispEdges; fill: rgb(191, 105, 105);"></rect><rect x="783.0654981549815" y="0" width="1" height="78.33333333333333" style="shape-rendering: crispEdges; fill: rgb(191, 105, 105);"></rect><rect x="785.7711023985239" y="0" width="1" height="78.33333333333333" style="shape-rendering: crispEdges; fill: rgb(191, 105, 105);"></rect><rect x="788.4767066420665" y="0" width="1" height="78.33333333333333" style="shape-rendering: crispEdges; fill: rgb(191, 105, 105);"></rect><rect x="791.1823108856089" y="0" width="1" height="78.33333333333333" style="shape-rendering: crispEdges; fill: rgb(191, 105, 105);"></rect><rect x="793.8879151291513" y="0" width="1" height="78.33333333333333" style="shape-rendering: crispEdges; fill: rgb(191, 105, 105);"></rect><rect x="796.5935193726937" y="0" width="1" height="78.33333333333333" style="shape-rendering: crispEdges; fill: rgb(191, 105, 105);"></rect><rect x="799.2991236162362" y="0" width="1" height="78.33333333333333" style="shape-rendering: crispEdges; fill: rgb(191, 105, 105);"></rect><rect x="802.0047278597785" y="0" width="1" height="78.33333333333333" style="shape-rendering: crispEdges; fill: rgb(191, 105, 105);"></rect><rect x="810.121540590406" y="0" width="1" height="78.33333333333333" style="shape-rendering: crispEdges; fill: rgb(191, 105, 105);"></rect></g><g transform="translate(0,480)" class="axis" style="stroke-width: 1px; font-size: 10px; font-family: Arial, Helvetica;"><g class="tick" transform="translate(131.0148754612546,0)" style="opacity: 1;"><line y2="6" x2="0" style="shape-rendering: crispEdges; fill: none; stroke: rgb(204, 204, 204);"></line><text dy=".71em" y="9" x="0" style="text-anchor: middle;">.380</text></g><g class="tick" transform="translate(185.12696033210332,0)" style="opacity: 1;"><line y2="6" x2="0" style="shape-rendering: crispEdges; fill: none; stroke: rgb(204, 204, 204);"></line><text dy=".71em" y="9" x="0" style="text-anchor: middle;">.400</text></g><g class="tick" transform="translate(239.239045202952,0)" style="opacity: 1;"><line y2="6" x2="0" style="shape-rendering: crispEdges; fill: none; stroke: rgb(204, 204, 204);"></line><text dy=".71em" y="9" x="0" style="text-anchor: middle;">.420</text></g><g class="tick" transform="translate(293.35113007380073,0)" style="opacity: 1;"><line y2="6" x2="0" style="shape-rendering: crispEdges; fill: none; stroke: rgb(204, 204, 204);"></line><text dy=".71em" y="9" x="0" style="text-anchor: middle;">.440</text></g><g class="tick" transform="translate(347.4632149446494,0)" style="opacity: 1;"><line y2="6" x2="0" style="shape-rendering: crispEdges; fill: none; stroke: rgb(204, 204, 204);"></line><text dy=".71em" y="9" x="0" style="text-anchor: middle;">.460</text></g><g class="tick" transform="translate(401.5752998154981,0)" style="opacity: 1;"><line y2="6" x2="0" style="shape-rendering: crispEdges; fill: none; stroke: rgb(204, 204, 204);"></line><text dy=".71em" y="9" x="0" style="text-anchor: middle;">.480</text></g><g class="tick" transform="translate(455.68738468634683,0)" style="opacity: 1;"><line y2="6" x2="0" style="shape-rendering: crispEdges; fill: none; stroke: rgb(204, 204, 204);"></line><text dy=".71em" y="9" x="0" style="text-anchor: middle;">.500</text></g><g class="tick" transform="translate(509.79946955719555,0)" style="opacity: 1;"><line y2="6" x2="0" style="shape-rendering: crispEdges; fill: none; stroke: rgb(204, 204, 204);"></line><text dy=".71em" y="9" x="0" style="text-anchor: middle;">.520</text></g><g class="tick" transform="translate(563.9115544280443,0)" style="opacity: 1;"><line y2="6" x2="0" style="shape-rendering: crispEdges; fill: none; stroke: rgb(204, 204, 204);"></line><text dy=".71em" y="9" x="0" style="text-anchor: middle;">.540</text></g><g class="tick" transform="translate(618.0236392988929,0)" style="opacity: 1;"><line y2="6" x2="0" style="shape-rendering: crispEdges; fill: none; stroke: rgb(204, 204, 204);"></line><text dy=".71em" y="9" x="0" style="text-anchor: middle;">.560</text></g><g class="tick" transform="translate(672.1357241697417,0)" style="opacity: 1;"><line y2="6" x2="0" style="shape-rendering: crispEdges; fill: none; stroke: rgb(204, 204, 204);"></line><text dy=".71em" y="9" x="0" style="text-anchor: middle;">.580</text></g><g class="tick" transform="translate(726.2478090405905,0)" style="opacity: 1;"><line y2="6" x2="0" style="shape-rendering: crispEdges; fill: none; stroke: rgb(204, 204, 204);"></line><text dy=".71em" y="9" x="0" style="text-anchor: middle;">.600</text></g><g class="tick" transform="translate(780.3598939114391,0)" style="opacity: 1;"><line y2="6" x2="0" style="shape-rendering: crispEdges; fill: none; stroke: rgb(204, 204, 204);"></line><text dy=".71em" y="9" x="0" style="text-anchor: middle;">.620</text></g><g class="tick" transform="translate(834.4719787822879,0)" style="opacity: 1;"><line y2="6" x2="0" style="shape-rendering: crispEdges; fill: none; stroke: rgb(204, 204, 204);"></line><text dy=".71em" y="9" x="0" style="text-anchor: middle;">.640</text></g><path class="domain" d="M114.78125,6V0H848V6" style="shape-rendering: crispEdges; fill: none; stroke: rgb(204, 204, 204);"></path></g></g></svg>