<svg width="848" height="500" xmlns="http://www.w3.org/2000/svg" version="1.1"><g class="x axis" transform="translate(0,485)" style="stroke-width: 1px; font-size: 10px; font-family: Arial, Helvetica;"><g class="tick" transform="translate(0.6224614631759237,0)" style="opacity: 1;"><line y2="-485" x2="0" style="shape-rendering: crispEdges; fill: none; stroke: rgb(204, 204, 204);"></line><text dy=".71em" y="3" x="0" style="text-anchor: middle;">:45</text></g><g class="tick" transform="translate(104.36603865916321,0)" style="opacity: 1;"><line y2="-485" x2="0" style="shape-rendering: crispEdges; fill: none; stroke: rgb(204, 204, 204);"></line><text dy=".71em" y="3" x="0" style="text-anchor: middle;">12:02</text></g><g class="tick" transform="translate(208.10961585515048,0)" style="opacity: 1;"><line y2="-485" x2="0" style="shape-rendering: crispEdges; fill: none; stroke: rgb(204, 204, 204);"></line><text dy=".71em" y="3" x="0" style="text-anchor: middle;">:15</text></g><g class="tick" transform="translate(311.85319305113774,0)" style="opacity: 1;"><line y2="-485" x2="0" style="shape-rendering: crispEdges; fill: none; stroke: rgb(204, 204, 204);"></line><text dy=".71em" y="3" x="0" style="text-anchor: middle;">:30</text></g><g class="tick" transform="translate(415.59677024712505,0)" style="opacity: 1;"><line y2="-485" x2="0" style="shape-rendering: crispEdges; fill: none; stroke: rgb(204, 204, 204);"></line><text dy=".71em" y="3" x="0" style="text-anchor: middle;">:45</text></g><g class="tick" transform="translate(519.3403474431124,0)" style="opacity: 1;"><line y2="-485" x2="0" style="shape-rendering: crispEdges; fill: none; stroke: rgb(204, 204, 204);"></line><text dy=".71em" y="3" x="0" style="text-anchor: middle;">12:03</text></g><g class="tick" transform="translate(623.0839246390996,0)" style="opacity: 1;"><line y2="-485" x2="0" style="shape-rendering: crispEdges; fill: none; stroke: rgb(204, 204, 204);"></line><text dy=".71em" y="3" x="0" style="text-anchor: middle;">:15</text></g><g class="tick" transform="translate(726.8275018350869,0)" style="opacity: 1;"><line y2="-485" x2="0" style="shape-rendering: crispEdges; fill: none; stroke: rgb(204, 204, 204);"></line><text dy=".71em" y="3" x="0" style="text-anchor: middle;">:30</text></g><g class="tick" transform="translate(830.5710790310742,0)" style="opacity: 1;"><line y2="-485" x2="0" style="shape-rendering: crispEdges; fill: none; stroke: rgb(204, 204, 204);"></line><text dy=".71em" y="3" x="0" style="text-anchor: middle;">:45</text></g><path class="domain" d="M0,-485V0H848V-485" style="shape-rendering: crispEdges; fill: none; stroke: rgb(204, 204, 204);"></path></g><g class="flow" title="''" transform="translate(0,0)"><path class="area" d="M0,21.962524521103965L57.63532066443737,18.302103767586637C115.27064132887475,14.64168301406931,230.5412826577495,7.320841507034655,288.58466139249106,16.128611118644475C346.6280401272327,24.936380730254292,347.4441562678411,49.872761460508585,347.86143598945165,62.34095182563573C348.2787157110622,74.80914219076288,348.2971590136748,74.80914219076288,348.4124296550036,74.80879942264288C348.5277002963325,74.80845665452287,348.73979827637766,74.80777111828287,348.9034825870647,74.80708558204287C349.0671668977517,74.80640004580286,349.1824375390805,74.80571450956285,349.25044721746457,74.80537174144284C349.3184568958486,74.80502897332283,349.3392056112878,74.80502897332283,349.4026044640187,74.80468620520284C349.46600331674955,74.80434343708284,349.5720523067721,74.80365790084284,349.6366038659163,74.80331513272283C349.7011554250605,74.80297236460282,349.72420955332626,74.80297236460282,349.78069216757746,74.80262959648282C349.8371747818286,74.80228682836281,349.92708588206506,74.8016012921228,349.98126308348964,74.8012585240028C350.03544028491416,74.8009157558828,350.0538835875268,74.8009157558828,350.0700214773128,74.80057298776279C350.0861593670989,74.8002302196428,350.09999184405837,74.79954468340279,350.11382432101783,74.7992019152828C350.1276567979773,74.79885914716279,350.14148927493676,74.79885914716279,350.1553217518962,74.79851637904278C350.1691542288557,74.79817361092277,350.18298670581515,74.79748807468278,350.2129570725607,74.79714530656277C350.2429274393062,74.79680253844276,350.28903569583775,74.79680253844276,350.3201587689966,74.79645977032276C350.35128184215534,74.79611700220275,350.36741973194137,74.79543146596274,350.3824049153141,74.79508869784273C350.39739009868686,74.79474592972272,350.4112225756463,74.79474592972272,350.49191202457655,74.79440316160273C350.5726014735068,74.79406039348272,350.72014789440766,74.79337485724272,350.8031427561645,74.79303208912272C350.88613761792124,74.79268932100273,350.9045809205339,74.79268932100273,351.17777234048333,74.79234655288272C351.4509637604327,74.79200378476271,351.978903297719,74.7913182485227,352.30050838702664,74.7906327122827C352.62211347633416,74.78994717604269,352.73738411766305,74.78926163980267,352.8042410896338,74.78891887168268C352.8710980616046,74.78857610356268,352.88954136421717,74.78857610356268,352.90567925400325,74.78823333544267C352.9218171437892,74.78789056732266,352.9356496207487,74.78720503108266,352.9506348041215,74.78686226296266C352.9656199874942,74.78651949484265,352.9817578772803,74.78651949484265,353.0532256749042,74.78617672672264C353.12469347252807,74.78583395860264,353.2514911779898,74.78514842236264,353.32295897561374,74.78480565424263C353.3944267732376,74.78446288612264,353.41056466302365,74.78446288612264,353.4820324606476,74.78412011800263C353.55350025827147,74.78377734988263,353.6802979637332,74.78309181364261,353.75176576135715,74.78274904552262C353.82323355898103,74.78240627740261,353.8393714487671,74.78240627740261,353.94657314520293,74.78206350928261C354.05377484163876,74.7817207411626,354.25204034472443,74.78103520492259,354.36846369246666,74.78069243680258C354.4848870402088,74.78034966868259,354.51946823260744,74.78034966868259,354.72926079982597,74.78000690056258C354.93905336704455,74.77966413244258,355.324057309083,74.77897859620258,355.6145393252318,74.57811647788054C355.9050213413805,74.37725435955849,356.10098143163964,73.97621565915439,356.20818312807546,73.77569630895235C356.3153848245113,73.5751769587503,356.3338281271239,73.5751769587503,356.3511187233233,73.5741486543903C356.3684093195226,73.57312035003028,356.3845472093086,73.57106374131027,356.3995323926814,73.57003543695025C356.41451757605415,73.56900713259024,356.4283500530136,73.56900713259024,356.589728950874,73.77021201903229C356.7511078487345,73.97141690547434,357.0600331674958,74.37382667835844,357.2248701845961,74.5750315648005C357.3897072016964,74.77623645124254,357.41045591713566,74.77623645124254,357.45195334801406,74.77589368312255C357.49345077889245,74.77555091500254,357.55569692521,74.77486537876254,357.59373623684854,74.77417984252253C357.63177554848704,74.77349430628252,357.64560802544656,74.77280877004252,357.6617459152326,74.77246600192251C357.6778838050186,74.77212323380252,357.69632710763125,74.77212323380252,357.74012995133626,74.7714376975625C357.7839327950412,74.77075216132249,357.85309517983853,74.76938108884248,357.9003561427834,74.76869555260248C357.9476171057282,74.76801001636247,357.97297664682054,74.76801001636247,357.99372536225974,74.76766724824246C358.0144740776989,74.76732448012245,358.0306119674849,74.76663894388244,358.06404045347034,74.76629617576243C358.09746893945567,74.76595340764243,358.1481880216404,74.76595340764243,358.1850746268656,74.76526787140243C358.2219612320909,74.76458233516243,358.24501536035666,74.7632112626824,358.26922219503575,74.7625257264424C358.2934290297148,74.7618401902024,358.31878857080716,74.7618401902024,358.3383845798331,74.76149742208239C358.35798058885894,74.7611546539624,358.3718130658184,74.76046911772238,358.38910366201776,74.76012634960239C358.40639425821706,74.75978358148238,358.42714297365626,74.75978358148238,358.537802789332,74.75909804524238C358.64846260500775,74.75841250900237,358.84903352092,74.75704143652236,358.9573879237691,74.75635590028236C359.06574232661825,74.75567036404234,359.0818802164043,74.75567036404234,359.48532746105536,74.75704143652236C359.8887747057064,74.75841250900237,360.6795313052225,74.7611546539624,361.60054372944023,74.7614974220824C362.5215561536579,74.7618401902024,363.5728244025772,74.75978358148238,364.15724655411464,74.75875527712238C364.74166870565205,74.75772697276236,364.85924475980755,74.75772697276236,365.1116874643178,74.75704143652236C365.364130168828,74.75635590028234,365.751439523693,74.75498482780233,366.0419215398417,74.722764624522C366.33240355599054,74.69054442124167,366.52605823342304,74.62747508716102,366.89261887284886,74.40296196855873C367.25917951227467,74.17844884995644,367.79864611369385,73.79249194683251,369.84008917162816,73.59917072715054C371.8815322295626,73.40584950746857,375.42495174401216,73.40516397122856,429.7347144061115,73.63893182907094C484.0444770682108,73.87269968691334,589.1205828779598,74.34092093883811,641.6770790854471,74.57503156480048C694.2335752929341,74.80914219076288,694.2704618981594,74.80914219076288,694.4329935024332,74.80879942264288C694.5955251067069,74.80845665452287,694.8837017100291,74.80777111828287,695.134991708126,74.80708558204287C695.3862817062229,74.80640004580286,695.6006850990947,74.80571450956285,695.7263300981432,74.80537174144284C695.8519750971916,74.80502897332283,695.8888617024169,74.80502897332283,695.997216105266,74.80468620520284C696.1055705081151,74.80434343708284,696.2853927085882,74.80365790084284,696.3937471114373,74.80331513272283C696.5021015142864,74.80297236460282,696.5389881195117,74.80297236460282,696.7015197237854,74.63056000024106C696.8640513280591,74.4581476358793,697.1522279313813,74.11332290715578,697.3504934344669,73.94022500655402C697.5487589375526,73.76712710595226,697.6571133404018,73.76575603347224,697.9625805399234,73.93714009347399C698.2680477394448,74.10852415347574,698.7706277356388,74.45266334595925,699.0403610363483,74.624732942201C699.3100943370579,74.79680253844276,699.3469809422832,74.79680253844276,699.4196014463203,74.79645977032276C699.4922219503576,74.79611700220275,699.6005763532066,74.79543146596274,699.6731968572439,74.79508869784273C699.7458173612811,74.79474592972272,699.7827039665062,74.79474592972272,699.8726150667428,74.79440316160273C699.9625261669793,74.79406039348272,700.1054617622272,74.79337485724272,700.1953728624636,74.79303208912272C700.2852839627001,74.79268932100273,700.3221705679254,74.79268932100273,700.4662588695865,74.79234655288272C700.6103471712474,74.79200378476271,700.8616371693445,74.7913182485227,701.2039909740912,74.7906327122827C701.5463447788379,74.78994717604269,701.9797623902346,74.78926163980267,702.2494956909441,74.78891887168268C702.5192289916538,74.78857610356268,702.6252779816763,74.78857610356268,703.0218089878476,74.6137643623609C703.4183399940189,74.4389526211591,704.105353016339,74.08932913875555,704.5399233341489,74.08864360251553C704.9744936519587,74.08795806627552,705.1566212652583,74.43621047619908,705.2834189707202,74.61033668116086C705.4102166761819,74.78446288612264,705.4816844738059,74.78446288612264,705.6257727754669,74.78412011800263C705.7698610771281,74.78377734988263,705.9865698828263,74.78309181364261,706.184835385912,74.78274904552262C706.3831008889977,74.78240627740261,706.5629230894707,74.78240627740261,706.743897996357,74.78206350928261C706.9248729032433,74.7817207411626,707.1070005165429,74.78103520492259,707.2061332680858,74.78069243680258C707.3052660196287,74.78034966868259,707.3214039094147,74.78034966868259,707.6925753744937,74.78000690056258C708.0637468395726,74.77966413244258,708.7899518799445,74.77897859620258,709.3201968300574,74.57811647788054C709.8504417801702,74.37725435955849,710.1847266400239,73.97621565915439,710.3599380148438,73.77569630895235C710.5351493896637,73.5751769587503,710.5512872794498,73.5751769587503,710.9651088818204,73.5741486543903C711.3789304841911,73.57312035003028,712.1904357991464,73.57106374131027,712.6088682271702,73.57003543695025C713.027300655194,73.56900713259024,713.0526601962863,73.56900713259024,713.1759997825081,73.77021201903229C713.2993393687301,73.97141690547434,713.5206590000815,74.37382667835844,713.6405404670635,74.5750315648005C713.7604219340456,74.77623645124254,713.7788652366582,74.77623645124254,724.4114291928336,74.77589368312255C735.043993149009,74.77555091500254,756.2906777587472,74.77486537876254,776.7327732920098,74.77417984252253C797.1748688252725,74.77349430628252,816.8123752820595,74.77280877004252,826.6415028681727,74.77246600192251C836.4706304542858,74.77212323380252,836.4913791697251,74.77212323380252,836.9443927901475,74.7714376975625C837.39740641057,74.77075216132249,838.2826849359758,74.76938108884248,838.7253241986787,74.76869555260248L839.1679634613816,74.76801001636247L839.1679634613816,75.83333333333333L838.7253241986788,75.83333333333333C838.2826849359758,75.83333333333333,837.39740641057,75.83333333333333,836.9443927901475,75.83333333333333C836.4913791697251,75.83333333333333,836.4706304542858,75.83333333333333,826.6415028681727,75.83333333333333C816.8123752820595,75.83333333333333,797.1748688252725,75.83333333333333,776.7327732920098,75.83333333333333C756.2906777587472,75.83333333333333,735.043993149009,75.83333333333333,724.4114291928336,75.83333333333333C713.7788652366582,75.83333333333333,713.7604219340456,75.83333333333333,713.6405404670636,75.83333333333333C713.5206590000815,75.83333333333333,713.2993393687301,75.83333333333333,713.1759997825081,75.83333333333333C713.0526601962863,75.83333333333333,713.027300655194,75.83333333333333,712.6088682271702,75.83333333333333C712.1904357991464,75.83333333333333,711.3789304841911,75.83333333333333,710.9651088818205,75.83333333333333C710.5512872794498,75.83333333333333,710.5351493896637,75.83333333333333,710.3599380148438,75.83333333333333C710.1847266400239,75.83333333333333,709.8504417801702,75.83333333333333,709.3201968300574,75.83333333333333C708.7899518799445,75.83333333333333,708.0637468395726,75.83333333333333,707.6925753744936,75.83333333333333C707.3214039094147,75.83333333333333,707.3052660196287,75.83333333333333,707.2061332680859,75.83333333333333C707.1070005165429,75.83333333333333,706.9248729032433,75.83333333333333,706.743897996357,75.83333333333333C706.5629230894707,75.83333333333333,706.3831008889977,75.83333333333333,706.184835385912,75.83333333333333C705.9865698828263,75.83333333333333,705.7698610771281,75.83333333333333,705.6257727754669,75.83333333333333C705.4816844738059,75.83333333333333,705.4102166761819,75.83333333333333,705.2834189707202,75.83333333333333C705.1566212652583,75.83333333333333,704.9744936519587,75.83333333333333,704.5399233341489,75.83333333333333C704.105353016339,75.83333333333333,703.4183399940189,75.83333333333333,703.0218089878476,75.83333333333333C702.6252779816763,75.83333333333333,702.5192289916538,75.83333333333333,702.2494956909442,75.83333333333333C701.9797623902346,75.83333333333333,701.5463447788379,75.83333333333333,701.2039909740912,75.83333333333333C700.8616371693445,75.83333333333333,700.6103471712474,75.83333333333333,700.4662588695865,75.83333333333333C700.3221705679254,75.83333333333333,700.2852839627001,75.83333333333333,700.1953728624636,75.83333333333333C700.1054617622272,75.83333333333333,699.9625261669793,75.83333333333333,699.8726150667428,75.83333333333333C699.7827039665062,75.83333333333333,699.7458173612811,75.83333333333333,699.6731968572439,75.83333333333333C699.6005763532066,75.83333333333333,699.4922219503576,75.83333333333333,699.4196014463204,75.83333333333333C699.3469809422832,75.83333333333333,699.3100943370579,75.83333333333333,699.0403610363483,75.83333333333333C698.7706277356388,75.83333333333333,698.2680477394448,75.83333333333333,697.9625805399234,75.83333333333333C697.6571133404018,75.83333333333333,697.5487589375526,75.83333333333333,697.3504934344669,75.83333333333333C697.1522279313813,75.83333333333333,696.8640513280591,75.83333333333333,696.7015197237855,75.83333333333333C696.5389881195117,75.83333333333333,696.5021015142864,75.83333333333333,696.3937471114373,75.83333333333333C696.2853927085882,75.83333333333333,696.1055705081151,75.83333333333333,695.997216105266,75.83333333333333C695.8888617024169,75.83333333333333,695.8519750971916,75.83333333333333,695.7263300981432,75.83333333333333C695.6006850990947,75.83333333333333,695.3862817062229,75.83333333333333,695.134991708126,75.83333333333333C694.8837017100291,75.83333333333333,694.5955251067069,75.83333333333333,694.4329935024331,75.83333333333333C694.2704618981594,75.83333333333333,694.2335752929341,75.83333333333333,641.6770790854471,75.83333333333333C589.1205828779598,75.83333333333333,484.0444770682108,75.83333333333333,429.7347144061115,75.83333333333333C375.42495174401216,75.83333333333333,371.8815322295626,75.83333333333333,369.84008917162816,75.83333333333333C367.79864611369385,75.83333333333333,367.25917951227467,75.83333333333333,366.89261887284886,75.83333333333333C366.52605823342304,75.83333333333333,366.33240355599054,75.83333333333333,366.0419215398417,75.83333333333333C365.751439523693,75.83333333333333,365.364130168828,75.83333333333333,365.11168746431775,75.83333333333333C364.85924475980755,75.83333333333333,364.74166870565205,75.83333333333333,364.1572465541147,75.83333333333333C363.5728244025772,75.83333333333333,362.5215561536579,75.83333333333333,361.6005437294402,75.83333333333333C360.6795313052225,75.83333333333333,359.8887747057064,75.83333333333333,359.48532746105536,75.83333333333333C359.0818802164043,75.83333333333333,359.06574232661825,75.83333333333333,358.95738792376915,75.83333333333333C358.84903352092,75.83333333333333,358.64846260500775,75.83333333333333,358.53780278933203,75.83333333333333C358.42714297365626,75.83333333333333,358.40639425821706,75.83333333333333,358.38910366201776,75.83333333333333C358.3718130658184,75.83333333333333,358.35798058885894,75.83333333333333,358.338384579833,75.83333333333333C358.31878857080716,75.83333333333333,358.2934290297148,75.83333333333333,358.26922219503575,75.83333333333333C358.24501536035666,75.83333333333333,358.2219612320909,75.83333333333333,358.1850746268657,75.83333333333333C358.1481880216404,75.83333333333333,358.09746893945567,75.83333333333333,358.06404045347034,75.83333333333333C358.0306119674849,75.83333333333333,358.0144740776989,75.83333333333333,357.99372536225974,75.83333333333333C357.97297664682054,75.83333333333333,357.9476171057282,75.83333333333333,357.9003561427834,75.83333333333333C357.85309517983853,75.83333333333333,357.7839327950412,75.83333333333333,357.74012995133626,75.83333333333333C357.69632710763125,75.83333333333333,357.6778838050186,75.83333333333333,357.6617459152326,75.83333333333333C357.64560802544656,75.83333333333333,357.63177554848704,75.83333333333333,357.59373623684854,75.83333333333333C357.55569692521,75.83333333333333,357.49345077889245,75.83333333333333,357.45195334801406,75.83333333333333C357.41045591713566,75.83333333333333,357.3897072016964,75.83333333333333,357.2248701845961,75.83333333333333C357.0600331674958,75.83333333333333,356.7511078487345,75.83333333333333,356.589728950874,75.83333333333333C356.4283500530136,75.83333333333333,356.41451757605415,75.83333333333333,356.3995323926814,75.83333333333333C356.3845472093086,75.83333333333333,356.3684093195226,75.83333333333333,356.3511187233233,75.83333333333333C356.3338281271239,75.83333333333333,356.3153848245113,75.83333333333333,356.20818312807546,75.83333333333333C356.10098143163964,75.83333333333333,355.9050213413805,75.83333333333333,355.6145393252318,75.83333333333333C355.324057309083,75.83333333333333,354.93905336704455,75.83333333333333,354.72926079982597,75.83333333333333C354.51946823260744,75.83333333333333,354.4848870402088,75.83333333333333,354.36846369246666,75.83333333333333C354.25204034472443,75.83333333333333,354.05377484163876,75.83333333333333,353.94657314520293,75.83333333333333C353.8393714487671,75.83333333333333,353.82323355898103,75.83333333333333,353.75176576135715,75.83333333333333C353.6802979637332,75.83333333333333,353.55350025827147,75.83333333333333,353.48203246064753,75.83333333333333C353.41056466302365,75.83333333333333,353.3944267732376,75.83333333333333,353.32295897561374,75.83333333333333C353.2514911779898,75.83333333333333,353.12469347252807,75.83333333333333,353.0532256749042,75.83333333333333C352.9817578772803,75.83333333333333,352.9656199874942,75.83333333333333,352.9506348041215,75.83333333333333C352.9356496207487,75.83333333333333,352.9218171437892,75.83333333333333,352.9056792540032,75.83333333333333C352.88954136421717,75.83333333333333,352.8710980616046,75.83333333333333,352.8042410896338,75.83333333333333C352.73738411766305,75.83333333333333,352.62211347633416,75.83333333333333,352.3005083870266,75.83333333333333C351.978903297719,75.83333333333333,351.4509637604327,75.83333333333333,351.1777723404833,75.83333333333333C350.9045809205339,75.83333333333333,350.88613761792124,75.83333333333333,350.8031427561645,75.83333333333333C350.72014789440766,75.83333333333333,350.5726014735068,75.83333333333333,350.49191202457655,75.83333333333333C350.4112225756463,75.83333333333333,350.39739009868686,75.83333333333333,350.3824049153141,75.83333333333333C350.36741973194137,75.83333333333333,350.35128184215534,75.83333333333333,350.3201587689965,75.83333333333333C350.28903569583775,75.83333333333333,350.2429274393062,75.83333333333333,350.2129570725607,75.83333333333333C350.18298670581515,75.83333333333333,350.1691542288557,75.83333333333333,350.1553217518962,75.83333333333333C350.14148927493676,75.83333333333333,350.1276567979773,75.83333333333333,350.11382432101783,75.83333333333333C350.09999184405837,75.83333333333333,350.0861593670989,75.83333333333333,350.0700214773129,75.83333333333333C350.0538835875268,75.83333333333333,350.03544028491416,75.83333333333333,349.9812630834896,75.83333333333333C349.92708588206506,75.83333333333333,349.8371747818286,75.83333333333333,349.78069216757746,75.83333333333333C349.72420955332626,75.83333333333333,349.7011554250605,75.83333333333333,349.6366038659163,75.83333333333333C349.5720523067721,75.83333333333333,349.46600331674955,75.83333333333333,349.40260446401874,75.83333333333333C349.3392056112878,75.83333333333333,349.3184568958486,75.83333333333333,349.25044721746457,75.83333333333333C349.1824375390805,75.83333333333333,349.0671668977517,75.83333333333333,348.9034825870647,75.83333333333333C348.73979827637766,75.83333333333333,348.5277002963325,75.83333333333333,348.4124296550036,75.83333333333333C348.2971590136748,75.83333333333333,348.2787157110622,75.83333333333333,347.86143598945165,75.83333333333333C347.4441562678411,75.83333333333333,346.6280401272327,75.83333333333333,288.58466139249106,75.83333333333333C230.5412826577495,75.83333333333333,115.27064132887475,75.83333333333333,57.63532066443737,75.83333333333333L0,75.83333333333333Z" style="fill: rgb(191, 105, 105);"></path><text x="842" y="69.83333333333333" style="font-size: 10px; fill: rgb(34, 34, 34); font-family: Arial, Helvetica; text-anchor: end;">''</text></g><g class="flow" title="'ServerNotRunning'" transform="translate(0,80.83333333333333)"><path class="area" d="M0,0L345.81192398662427,0L345.81192398662427,75.83333333333333L0,75.83333333333333Z" style="fill: rgb(191, 191, 105);"></path><text x="842" y="69.83333333333333" style="font-size: 10px; fill: rgb(34, 34, 34); font-family: Arial, Helvetica; text-anchor: end;">'ServerNotRunning'</text></g><g class="flow" title="'HealthStateFailed'" transform="translate(0,161.66666666666666)"><path class="area" d="M0,25.398941481925306L345.81192398662427,0L345.81192398662427,75.83333333333333L0,75.83333333333333Z" style="fill: rgb(105, 191, 105);"></path><text x="842" y="69.83333333333333" style="font-size: 10px; fill: rgb(34, 34, 34); font-family: Arial, Helvetica; text-anchor: end;">'HealthStateFailed'</text></g><g class="flow" title="'WatchFailedError'" transform="translate(0,242.5)"><path class="area" d="M355.798972351358,0L355.80588858983765,0C355.81280482831744,0,355.82663730527685,0,356.15861675230406,6.644113149847095C356.49059619933115,13.28822629969419,357.14072261642605,26.57645259938838,357.47846559551965,33.220565749235476C357.81620857461326,39.86467889908257,357.8415681157056,39.86467889908257,416.52469890982246,33.220565749235476C475.2078297039393,26.57645259938838,592.5487317510807,13.28822629969419,651.2330152516108,6.644113149847095C709.9172987521409,0,709.9449637060599,0,731.3011554250605,6.644113149847095C752.6573471440611,13.28822629969419,795.3420656281434,26.57645259938838,816.850414593698,33.220565749235476C838.3587635592528,39.86467889908257,838.69074300628,39.86467889908257,838.8567327297935,39.86467889908257L839.0227224533072,39.86467889908257L839.0227224533072,75.83333333333333L838.8567327297935,75.83333333333333C838.69074300628,75.83333333333333,838.3587635592528,75.83333333333333,816.8504145936981,75.83333333333333C795.3420656281434,75.83333333333333,752.6573471440611,75.83333333333333,731.3011554250604,75.83333333333333C709.9449637060599,75.83333333333333,709.9172987521409,75.83333333333333,651.2330152516107,75.83333333333333C592.5487317510807,75.83333333333333,475.2078297039393,75.83333333333333,416.5246989098225,75.83333333333333C357.8415681157056,75.83333333333333,357.81620857461326,75.83333333333333,357.47846559551965,75.83333333333333C357.14072261642605,75.83333333333333,356.49059619933115,75.83333333333333,356.15861675230406,75.83333333333333C355.82663730527685,75.83333333333333,355.81280482831744,75.83333333333333,355.8058885898377,75.83333333333333L355.798972351358,75.83333333333333Z" style="fill: rgb(105, 191, 191);"></path><text x="842" y="69.83333333333333" style="font-size: 10px; fill: rgb(34, 34, 34); font-family: Arial, Helvetica; text-anchor: end;">'WatchFailedError'</text></g><g class="flow" title="'HealthStateDisabled'" transform="translate(0,323.3333333333333)"><path class="area" d="M345.81192398662427,0ZL345.81192398662427,75.83333333333333ZZ" style="fill: rgb(105, 105, 191);"></path><text x="842" y="69.83333333333333" style="font-size: 10px; fill: rgb(34, 34, 34); font-family: Arial, Helvetica; text-anchor: end;">'HealthStateDisabled'</text></g><g class="flow" title="'UnknownError'" transform="translate(0,404.16666666666663)"><path class="area" d="M839.7489274936792,42.57197290431837L840.0751434086399,42.56127105089848C840.4013593236006,42.550569197478595,841.053791153522,42.52916549063882,841.4952777098115,42.51846363721893C841.9367642661011,42.50776178379904,842.1673055487589,42.50776178379904,842.3505858684719,42.48635807695926C842.5338661881847,42.464954370119486,842.6698855449528,42.42214695643993,842.7759345349752,42.400743249600154C842.8819835249978,42.37933954276038,842.9580621482748,42.37933954276038,843.0203082945925,42.36863768934049C843.0825544409101,42.35793583592059,843.1309681102683,42.33653212908081,843.2658347606232,42.32583027566093C843.400701410978,42.31512842224103,843.6220210423294,42.31512842224103,843.812217600522,42.293724715401254C844.0024141587146,42.27232100856148,844.1614876437484,42.22951359488192,844.3424625506348,42.208109888042145C844.523437457521,42.18670618120237,844.7263137862599,42.18670618120237,844.8957616290134,42.197408034622256C845.0652094717668,42.208109888042145,845.2012288285349,42.22951359488192,845.3026669929044,42.24021544830181C845.4041051572738,42.2509173017217,845.4709621292444,42.2509173017217,845.8421335943234,41.244943080252135C846.2133050594023,40.23896885878257,846.8887910175895,38.22702041584344,847.2622678954951,31.19590271897638C847.6357447734007,24.16478502210932,847.7072125710247,12.11449807131433,847.7798330750618,6.078652742496943C847.852453579099,0.04280741367955722,847.9262267895494,0.02140370683977861,847.9631133947746,0.010701853419889305L848,0L848,75.83333333333333L847.9631133947746,75.83333333333333C847.9262267895494,75.83333333333333,847.852453579099,75.83333333333333,847.7798330750618,75.83333333333333C847.7072125710247,75.83333333333333,847.6357447734007,75.83333333333333,847.2622678954951,75.83333333333333C846.8887910175895,75.83333333333333,846.2133050594023,75.83333333333333,845.8421335943234,75.83333333333333C845.4709621292444,75.83333333333333,845.4041051572738,75.83333333333333,845.3026669929043,75.83333333333333C845.2012288285349,75.83333333333333,845.0652094717668,75.83333333333333,844.8957616290134,75.83333333333333C844.7263137862599,75.83333333333333,844.523437457521,75.83333333333333,844.3424625506348,75.83333333333333C844.1614876437484,75.83333333333333,844.0024141587146,75.83333333333333,843.812217600522,75.83333333333333C843.6220210423294,75.83333333333333,843.400701410978,75.83333333333333,843.2658347606232,75.83333333333333C843.1309681102683,75.83333333333333,843.0825544409101,75.83333333333333,843.0203082945925,75.83333333333333C842.9580621482748,75.83333333333333,842.8819835249978,75.83333333333333,842.7759345349752,75.83333333333333C842.6698855449528,75.83333333333333,842.5338661881847,75.83333333333333,842.3505858684719,75.83333333333333C842.1673055487589,75.83333333333333,841.9367642661011,75.83333333333333,841.4952777098115,75.83333333333333C841.053791153522,75.83333333333333,840.4013593236006,75.83333333333333,840.0751434086399,75.83333333333333L839.7489274936792,75.83333333333333Z" style="fill: rgb(191, 105, 191);"></path><text x="842" y="69.83333333333333" style="font-size: 10px; fill: rgb(34, 34, 34); font-family: Arial, Helvetica; text-anchor: end;">'UnknownError'</text></g></svg>